<svg width="64" height="64" viewBox="0 0 64 64" fill="none" xmlns="http://www.w3.org/2000/svg">
<path d="M32 0L59.7128 16V48L32 64L4.28719 48V16L32 0Z" fill="#060606"/>
<path d="M49.2969 25.75L32.8438 14.7812C32.2812 14.4297 31.6484 14.4297 31.0859 14.7812L14.6328 25.75C14.2109 26.0312 14 26.5234 14 27.0156V37.9844C14 38.5469 14.2109 39.0391 14.6328 39.3203L31.0859 50.2891C31.6484 50.6406 32.2812 50.6406 32.8438 50.2891L49.2969 39.3203C49.7188 39.0391 50 38.5469 50 37.9844V27.0156C50 26.5234 49.7188 26.0312 49.2969 25.75ZM33.5469 19L45.6406 27.0156L40.2266 30.6719L33.5469 26.1719V19ZM30.4531 19V26.1719L23.7031 30.6719L18.2891 27.0156L30.4531 19ZM17.0938 29.9688L20.9609 32.5L17.0938 35.1016V29.9688ZM30.4531 46.0703L18.2891 37.9844L23.7031 34.3984L30.4531 38.8984V46.0703ZM32 36.1562L26.5156 32.5L32 28.8438L37.4141 32.5L32 36.1562ZM33.5469 46.0703V38.8984L40.2266 34.3984L45.6406 37.9844L33.5469 46.0703ZM46.9062 35.1016L42.9688 32.5L46.9062 29.9688V35.1016Z" fill="white"/>
</svg>
