<svg width="64" height="64" viewBox="0 0 64 64" fill="none" xmlns="http://www.w3.org/2000/svg">
<path d="M32 0L59.7128 16V48L32 64L4.28719 48V16L32 0Z" fill="#161B22"/>
<path d="M26.1641 42.4844C26.1641 42.3438 26.0234 42.2031 25.8125 42.2031C25.6016 42.2031 25.4609 42.3438 25.4609 42.4844C25.4609 42.625 25.6016 42.7656 25.8125 42.6953C26.0234 42.6953 26.1641 42.625 26.1641 42.4844ZM23.9844 42.1328C23.9844 42.2734 24.125 42.4844 24.3359 42.4844C24.4766 42.5547 24.6875 42.4844 24.7578 42.3438C24.7578 42.2031 24.6875 42.0625 24.4766 41.9922C24.2656 41.9219 24.0547 41.9922 23.9844 42.1328ZM27.1484 42.0625C26.9375 42.0625 26.7969 42.2031 26.7969 42.4141C26.7969 42.5547 27.0078 42.625 27.2188 42.5547C27.4297 42.4844 27.5703 42.4141 27.5 42.2734C27.5 42.1328 27.2891 41.9922 27.1484 42.0625ZM31.7188 15.0625C22.0156 15.0625 14.5625 22.5156 14.5625 32.2188C14.5625 40.0234 19.4141 46.7031 26.4453 49.0938C27.3594 49.2344 27.6406 48.6719 27.6406 48.25C27.6406 47.7578 27.6406 45.3672 27.6406 43.8906C27.6406 43.8906 22.7188 44.9453 21.6641 41.7812C21.6641 41.7812 20.8906 39.7422 19.7656 39.25C19.7656 39.25 18.1484 38.125 19.8359 38.125C19.8359 38.125 21.5938 38.2656 22.5781 39.9531C24.125 42.6953 26.6562 41.9219 27.7109 41.4297C27.8516 40.3047 28.2734 39.5312 28.8359 39.0391C24.8984 38.6172 20.8906 38.0547 20.8906 31.3047C20.8906 29.3359 21.4531 28.4219 22.5781 27.1562C22.3672 26.6641 21.8047 24.8359 22.7891 22.375C24.1953 21.9531 27.6406 24.2734 27.6406 24.2734C29.0469 23.8516 30.5234 23.7109 32 23.7109C33.5469 23.7109 35.0234 23.8516 36.4297 24.2734C36.4297 24.2734 39.8047 21.8828 41.2812 22.375C42.2656 24.8359 41.6328 26.6641 41.4922 27.1562C42.6172 28.4219 43.3203 29.3359 43.3203 31.3047C43.3203 38.0547 39.1719 38.6172 35.2344 39.0391C35.8672 39.6016 36.4297 40.6562 36.4297 42.3438C36.4297 44.6641 36.3594 47.6172 36.3594 48.1797C36.3594 48.6719 36.7109 49.2344 37.625 49.0234C44.6562 46.7031 49.4375 40.0234 49.4375 32.2188C49.4375 22.5156 41.4922 15.0625 31.7188 15.0625ZM21.3828 39.3203C21.2422 39.3906 21.3125 39.6016 21.3828 39.7422C21.5234 39.8125 21.6641 39.8828 21.8047 39.8125C21.875 39.7422 21.875 39.5312 21.7344 39.3906C21.5938 39.3203 21.4531 39.25 21.3828 39.3203ZM20.6094 38.7578C20.5391 38.8984 20.6094 38.9688 20.75 39.0391C20.8906 39.1094 21.0312 39.1094 21.1016 38.9688C21.1016 38.8984 21.0312 38.8281 20.8906 38.7578C20.75 38.6875 20.6797 38.6875 20.6094 38.7578ZM22.8594 41.2891C22.7891 41.3594 22.7891 41.5703 23 41.7109C23.1406 41.8516 23.3516 41.9219 23.4219 41.7812C23.4922 41.7109 23.4922 41.5 23.3516 41.3594C23.2109 41.2188 23 41.1484 22.8594 41.2891ZM22.0859 40.2344C21.9453 40.3047 21.9453 40.5156 22.0859 40.6562C22.2266 40.7969 22.3672 40.8672 22.5078 40.7969C22.5781 40.7266 22.5781 40.5156 22.5078 40.375C22.3672 40.2344 22.2266 40.1641 22.0859 40.2344Z" fill="white"/>
</svg>
