<svg width="64" height="64" viewBox="0 0 64 64" fill="none" xmlns="http://www.w3.org/2000/svg">
<path d="M32 0L59.7128 16V48L32 64L4.28719 48V16L32 0Z" fill="#0A66C2"/>
<path d="M23.2812 46V24.9766H16.7422V46H23.2812ZM19.9766 22.1641C22.0859 22.1641 23.7734 20.4062 23.7734 18.2969C23.7734 16.2578 22.0859 14.5703 19.9766 14.5703C17.9375 14.5703 16.25 16.2578 16.25 18.2969C16.25 20.4062 17.9375 22.1641 19.9766 22.1641ZM47.6797 46H47.75V34.4688C47.75 28.8438 46.4844 24.4844 39.875 24.4844C36.7109 24.4844 34.6016 26.2422 33.6875 27.8594H33.6172V24.9766H27.3594V46H33.8984V35.5938C33.8984 32.8516 34.3906 30.25 37.7656 30.25C41.1406 30.25 41.2109 33.3438 41.2109 35.8047V46H47.6797Z" fill="white"/>
</svg>
