<svg width="64" height="64" viewBox="0 0 64 64" fill="none" xmlns="http://www.w3.org/2000/svg">
<path d="M32 0L59.7128 16V48L32 64L4.28719 48V16L32 0Z" fill="#1D9BF0"/>
<path d="M46.2734 25.1875C47.6797 24.1328 48.9453 22.8672 49.9297 21.3906C48.6641 21.9531 47.1875 22.375 45.7109 22.5156C47.2578 21.6016 48.3828 20.1953 48.9453 18.4375C47.5391 19.2812 45.9219 19.9141 44.3047 20.2656C42.8984 18.7891 41 17.9453 38.8906 17.9453C34.8125 17.9453 31.5078 21.25 31.5078 25.3281C31.5078 25.8906 31.5781 26.4531 31.7188 27.0156C25.6016 26.6641 20.1172 23.7109 16.4609 19.2812C15.8281 20.3359 15.4766 21.6016 15.4766 23.0078C15.4766 25.5391 16.7422 27.7891 18.7812 29.125C17.5859 29.0547 16.3906 28.7734 15.4062 28.2109V28.2812C15.4062 31.8672 17.9375 34.8203 21.3125 35.5234C20.75 35.6641 20.0469 35.8047 19.4141 35.8047C18.9219 35.8047 18.5 35.7344 18.0078 35.6641C18.9219 38.6172 21.6641 40.7266 24.8984 40.7969C22.3672 42.7656 19.2031 43.9609 15.7578 43.9609C15.125 43.9609 14.5625 43.8906 14 43.8203C17.2344 45.9297 21.1016 47.125 25.3203 47.125C38.8906 47.125 46.2734 35.9453 46.2734 26.1719C46.2734 25.8203 46.2734 25.5391 46.2734 25.1875Z" fill="white"/>
</svg>
